<svg width="21" height="22" viewBox="0 0 21 22" fill="none" xmlns="http://www.w3.org/2000/svg">
<g id="elements">
<path id="Vector" d="M1 11C1 6.52166 1 4.28249 2.39124 2.89124C3.78249 1.5 6.02166 1.5 10.5 1.5C14.9783 1.5 17.2175 1.5 18.6088 2.89124C20 4.28249 20 6.52166 20 11C20 15.4783 20 17.7175 18.6088 19.1088C17.2175 20.5 14.9783 20.5 10.5 20.5C6.02166 20.5 3.78249 20.5 2.39124 19.1088C1 17.7175 1 15.4783 1 11Z" stroke="#141B34" stroke-width="1.5" stroke-linejoin="round"/>
<path id="Vector_2" d="M15.5 7.75C15.9142 7.75 16.25 7.41421 16.25 7C16.25 6.58579 15.9142 6.25 15.5 6.25V7.75ZM14.5 7V7.75V7ZM9.75 20.5C9.75 20.9142 10.0858 21.25 10.5 21.25C10.9142 21.25 11.25 20.9142 11.25 20.5H9.75ZM8.5 12.25C8.08579 12.25 7.75 12.5858 7.75 13C7.75 13.4142 8.08579 13.75 8.5 13.75V12.25ZM13.5 13.75C13.9142 13.75 14.25 13.4142 14.25 13C14.25 12.5858 13.9142 12.25 13.5 12.25V13.75ZM15.5 6.25H14.5V7.75H15.5V6.25ZM9.75 11V20.5H11.25V11H9.75ZM14.5 6.25C13.5784 6.25 12.8117 6.24841 12.2055 6.32991C11.5777 6.41432 11.0109 6.59999 10.5555 7.05546L11.6161 8.11612C11.7464 7.9858 11.9439 7.87858 12.4054 7.81654C12.8884 7.75159 13.536 7.75 14.5 7.75V6.25ZM11.25 11C11.25 10.036 11.2516 9.38843 11.3165 8.90539C11.3786 8.44393 11.4858 8.24643 11.6161 8.11612L10.5555 7.05546C10.1 7.51093 9.91432 8.07773 9.82991 8.70552C9.74841 9.31174 9.75 10.0784 9.75 11H11.25ZM8.5 13.75H13.5V12.25H8.5V13.75Z" fill="#141B34"/>
</g>
</svg>
