<svg width="23" height="22" viewBox="0 0 23 22" fill="none" xmlns="http://www.w3.org/2000/svg">
<g id="elements">
<path id="Vector" d="M20.5 10.8453C20.5707 10.9628 20.6507 11.0791 20.7412 11.194C21.2798 11.8701 22.0068 12.5625 22.1538 13.394C22.3931 14.7471 21.3235 15.6862 20.0139 16.1542C14.9933 17.9486 8.00666 17.9486 2.98606 16.1542C1.6765 15.6862 0.606927 14.7471 0.846163 13.394C0.993189 12.5625 1.72019 11.8701 2.25881 11.194C2.96431 10.2975 3.03441 9.31971 3.03452 8.27941C3.03452 4.2591 6.82464 1 11.5 1C12.0779 1 12.6422 1.04979 13.1875 1.14464" stroke="#0B1019" stroke-width="1.5" stroke-linecap="round" stroke-linejoin="round"/>
<path id="Vector 4459" d="M16.018 2H20.1495C21.0187 2 21.4533 2 21.569 2.24011C21.6848 2.48023 21.3891 2.76827 20.7977 3.34436L16.9528 6.65564C16.3613 7.23173 15.9022 7.51977 16.018 7.75989C16.1338 8 16.7317 8 17.6009 8H21.625" stroke="#0B1019" stroke-width="1.5" stroke-linecap="round" stroke-linejoin="round"/>
<path id="Icon" d="M8.125 20C9.02065 20.6219 10.2034 21 11.5 21C12.7966 21 13.9793 20.6219 14.875 20" stroke="#0B1019" stroke-width="1.5" stroke-linecap="round" stroke-linejoin="round"/>
</g>
</svg>
