<svg width="24" height="24" viewBox="0 0 24 24" fill="none" xmlns="http://www.w3.org/2000/svg">
<g id="data-development-workflow-data-exploration-recently-opened_svgrepo.com">
<path id="Vector" d="M5.5629 2.89681L5.39662 3.10767C5.46862 2.85053 5.52176 2.64824 5.55776 2.49567L5.7189 1.80996C5.88348 1.31281 5.77719 1.01624 5.28176 0.849958C4.90805 0.786529 4.5789 0.841386 4.41433 1.17224L3.62233 4.51167C3.51262 4.90596 3.4749 5.20081 3.97033 5.3671L7.0749 6.15567C7.57205 6.32024 7.9269 6.1111 8.06919 5.69967C8.20805 5.28653 7.90462 4.88024 7.53433 4.80481L6.21948 4.46539C6.34119 4.37796 6.33262 4.32481 6.50576 4.18767C8.47376 2.64481 10.1778 1.80824 12.3258 1.80824C17.28 1.80824 21.6258 6.26881 21.6258 11.2231C21.6258 16.1791 17.28 20.554 12.3258 20.554C7.37148 20.554 3.02576 16.1791 3.02576 11.2231C3.02576 10.7277 2.70005 10.3317 2.2029 10.3317C1.70748 10.3317 1.40576 10.7277 1.40576 11.2231C1.40576 17.1717 6.3789 22.1877 12.3258 22.1877C18.2709 22.1877 23.2869 17.1562 23.2869 11.2094C23.2869 5.26253 18.5383 0.263672 12.3463 0.263672C9.83956 0.282214 7.42641 1.21832 5.5629 2.8951V2.89681ZM11.0229 7.71567V12.9288C11.0229 13.426 11.3538 13.7551 11.8492 13.7551H15.6C16.0972 13.7551 16.4058 13.4242 16.4058 12.9288C16.4058 12.4334 16.0972 12.202 15.6 12.202H12.6343V7.71739C12.6343 7.22196 12.3532 6.88253 11.856 6.88253C11.3606 6.88253 11.0246 7.22196 11.0246 7.71739L11.0229 7.71567Z" fill="#0B1019"/>
</g>
</svg>
